HIERARCHY
ROOT Hips
{
 OFFSET 0.000000 0.000000 0.000000
 CHANNELS 6 Xposition Yposition Zposition Yrotation Xrotation Zrotation
 JOINT Chest
 {
  OFFSET 0.000000 13.173100 -0.061900
  CHANNELS 3 Yrotation Xrotation Zrotation
  JOINT Chest2
  {
   OFFSET 0.000000 8.040800 0.126200
   CHANNELS 3 Yrotation Xrotation Zrotation
   JOINT Chest3
   {
    OFFSET 0.000000 7.994400 0.000000
    CHANNELS 3 Yrotation Xrotation Zrotation
    JOINT Chest4
    {
     OFFSET 0.000000 7.986200 0.000000
     CHANNELS 3 Yrotation Xrotation Zrotation
     JOINT Neck
     {
      OFFSET 0.000000 12.259400 0.000000
      CHANNELS 3 Yrotation Xrotation Zrotation
      JOINT Head
      {
       OFFSET 0.000000 7.518700 0.267100
       CHANNELS 3 Yrotation Xrotation Zrotation
       End Site
       {
        OFFSET 0.000000 13.617700 0.141000
       }
      }
     }
     JOINT RightCollar
     {
      OFFSET -2.983800 8.314300 0.000000
      CHANNELS 3 Yrotation Xrotation Zrotation
      JOINT RightShoulder
      {
       OFFSET -16.133400 0.000000 0.000000
       CHANNELS 3 Yrotation Xrotation Zrotation
       JOINT RightElbow
       {
        OFFSET 0.000000 -29.822100 0.000000
        CHANNELS 3 Yrotation Xrotation Zrotation
        JOINT RightWrist
        {
         OFFSET 0.000000 -24.437700 0.010900
         CHANNELS 3 Yrotation Xrotation Zrotation
         End Site
         {
          OFFSET 0.000000 -18.312300 0.000000
         }
        }
       }
      }
     }
     JOINT LeftCollar
     {
      OFFSET 2.983800 8.314300 0.000000
      CHANNELS 3 Yrotation Xrotation Zrotation
      JOINT LeftShoulder
      {
       OFFSET 16.133400 0.000000 0.000000
       CHANNELS 3 Yrotation Xrotation Zrotation
       JOINT LeftElbow
       {
        OFFSET 0.000000 -29.822100 0.000000
        CHANNELS 3 Yrotation Xrotation Zrotation
        JOINT LeftWrist
        {
         OFFSET 0.000000 -24.437700 0.010900
         CHANNELS 3 Yrotation Xrotation Zrotation
         End Site
         {
          OFFSET 0.000000 -18.312300 0.000000
         }
        }
       }
      }
     }
    }
   }
  }
 }
 JOINT RightHip
 {
  OFFSET -11.206700 0.306200 0.030900
  CHANNELS 3 Yrotation Xrotation Zrotation
  JOINT RightKnee
  {
   OFFSET 0.000000 -57.334900 0.009400
   CHANNELS 3 Yrotation Xrotation Zrotation
   JOINT RightAnkle
   {
    OFFSET 0.000000 -43.376200 0.036600
    CHANNELS 3 Yrotation Xrotation Zrotation
    JOINT RightToe
    {
     OFFSET 0.000000 -10.035500 18.363100
     CHANNELS 3 Yrotation Xrotation Zrotation
     End Site
     {
      OFFSET 0.000000 -1.618500 7.239000
     }
    }
   }
  }
 }
 JOINT LeftHip
 {
  OFFSET 11.206700 0.306200 0.030900
  CHANNELS 3 Yrotation Xrotation Zrotation
  JOINT LeftKnee
  {
   OFFSET 0.000000 -57.334900 0.009400
   CHANNELS 3 Yrotation Xrotation Zrotation
   JOINT LeftAnkle
   {
    OFFSET 0.000000 -43.376200 0.036600
    CHANNELS 3 Yrotation Xrotation Zrotation
    JOINT LeftToe
    {
     OFFSET 0.000000 -10.035500 18.363100
     CHANNELS 3 Yrotation Xrotation Zrotation
     End Site
     {
      OFFSET 0.000000 -1.618500 7.239000
     }
    }
   }
  }
 }
}
MOTION
Frames: 7
Frame Time: 0.008333
0.000000 110.232800 0.000000 0.000000 -5.767877 0.000000 0.000000 11.653817 0.000000 0.000000 -5.885947 0.000000 0.000000 -0.000000 0.000000 0.000000 -0.000000 0.000000 0.000000 12.528835 0.000000 0.000000 0.711642 0.000000 0.000000 -0.000000 0.000000 0.000000 0.000000 -90.000000 0.000000 -2.309062 0.000000 0.000000 2.309062 0.000000 0.000000 -0.000000 0.000000 0.000000 -0.000000 90.000000 0.000000 -2.309062 0.000000 0.000000 2.309062 0.000000 0.000000 8.520406 0.000000 0.000000 1.905762 0.000000 -0.000000 -4.658285 0.000000 0.000000 -0.000000 0.000000 0.000000 8.520406 0.000000 0.000000 1.905762 0.000000 -0.000000 -4.658285 0.000000 0.000000 -0.000000 0.000000
-95.474768 64.548108 89.464759 174.877454 -36.051511 -2.815126 2.234305 20.964940 1.516469 0.255461 2.783907 0.320159 0.425101 4.541045 0.529155 1.972495 17.960371 2.356766 0.546139 14.013087 -1.889982 1.797743 -9.684681 -3.749567 -3.769270 1.942664 -1.300275 -1.454885 -9.459470 0.947830 -114.479000 -74.913871 126.937262 -4.172009 -6.609236 13.898058 -4.352477 1.125975 -1.324404 4.183304 -10.922497 4.801362 168.525050 -73.894754 -179.010127 -3.409547 -16.486873 15.594380 -6.174451 -44.850397 4.058690 -105.657666 86.350330 -100.556985 -0.794633 -8.821084 -4.919852 0.423415 -0.784710 0.249721 -2.447436 -41.425449 3.667746 74.158668 82.648233 63.884054 -6.667071 -13.853149 8.166553 0.410195 1.233479 0.228521
-95.472292 64.545723 89.458483 174.882383 -36.037917 -2.815283 2.238492 20.948756 1.516942 0.255435 2.777753 0.319893 0.425106 4.531636 0.528842 1.971373 17.938280 2.354333 0.638323 14.013132 -1.848610 1.894216 -9.669461 -3.715410 -3.748292 1.960457 -1.289454 -1.389272 -9.590006 0.965197 -113.713038 -74.961005 126.049265 -4.160749 -6.631588 13.914405 -4.368033 1.115356 -1.333947 4.180903 -10.956163 4.765946 168.414904 -74.018355 -178.838192 -3.425800 -16.430197 15.462753 -6.170323 -44.865707 4.057851 -105.838285 86.351058 -100.735488 -0.799326 -8.831619 -4.917846 0.420846 -0.784155 0.249901 -2.441095 -41.438580 3.662922 74.244961 82.645374 63.972900 -6.680460 -13.863920 8.168296 0.412713 1.238327 0.230718
-95.465433 64.545941 89.448403 174.865302 -36.042188 -2.819284 2.263472 20.950620 1.534571 0.257912 2.772806 0.320265 0.422615 4.529220 0.528461 1.977665 17.913317 2.354848 0.703165 14.014217 -1.814537 1.997753 -9.669961 -3.676136 -3.693909 1.931948 -1.273802 -1.360062 -9.667058 0.965987 -113.205736 -75.036636 125.412666 -4.206472 -6.645676 13.927166 -4.377861 1.100375 -1.340875 4.188140 -10.993537 4.724211 168.260295 -74.112923 -178.680095 -3.415885 -16.364892 15.359948 -6.155915 -44.861048 4.078992 -105.928246 86.341484 -100.818585 -0.804518 -8.836066 -4.917544 0.427173 -0.787733 0.249187 -2.426625 -41.430895 3.679572 74.377103 82.653544 64.105404 -6.677860 -13.889224 8.179686 0.398271 1.243330 0.225109
-95.463243 64.542389 89.442484 174.870918 -36.017261 -2.818286 2.260856 20.924609 1.531808 0.255478 2.772172 0.319690 0.425311 4.523030 0.528703 2.000380 17.867979 2.358206 0.749811 14.033497 -1.776629 2.089391 -9.677718 -3.632008 -3.655561 1.922374 -1.258783 -1.336597 -9.725990 0.964789 -112.959618 -75.144379 125.039023 -4.243141 -6.708391 13.839837 -4.378932 1.078702 -1.346552 4.180379 -11.005867 4.688230 167.998060 -74.196679 -178.444563 -3.397690 -16.316963 15.284248 -6.156180 -44.887613 4.079296 -106.065002 86.338292 -100.953513 -0.800700 -8.844323 -4.926060 0.431158 -0.786796 0.250192 -2.422163 -41.454314 3.673151 74.404708 82.656791 64.136102 -6.683095 -13.900954 8.181227 0.406382 1.252296 0.225967
-95.461305 64.540085 89.435342 174.879937 -35.999009 -2.818561 2.266578 20.906161 1.533870 0.255659 2.766587 0.319826 0.425663 4.514096 0.528646 1.989288 17.875145 2.358915 0.816974 14.006608 -1.742023 2.168657 -9.692608 -3.584371 -3.602283 1.883143 -1.249406 -1.313626 -9.782884 0.968698 -112.932194 -75.270257 124.892474 -4.289232 -6.719792 13.826455 -4.379723 1.076410 -1.347677 4.188474 -11.039897 4.667284 167.680244 -74.223540 -178.161243 -3.373725 -16.292129 15.254076 -6.156960 -44.906069 4.076613 -106.246513 86.336734 -101.133347 -0.802662 -8.857931 -4.924459 0.429055 -0.784454 0.248041 -2.418796 -41.471016 3.665157 74.470358 82.658947 64.202910 -6.690827 -13.915907 8.186865 0.398550 1.261551 0.222937
-95.459719 64.537501 89.429709 174.897691 -35.975467 -2.824219 2.267373 20.886317 1.538135 0.255944 2.761091 0.319903 0.425981 4.505837 0.528980 1.992839 17.860365 2.362259 0.862596 13.994420 -1.704548 2.237001 -9.712502 -3.534502 -3.569588 1.863918 -1.240001 -1.300330 -9.826639 0.976376 -112.960698 -75.382755 124.823417 -4.202191 -6.757202 13.768062 -4.379686 1.062457 -1.353664 4.188935 -11.105804 4.635595 167.420652 -74.303112 -177.939209 -3.337483 -16.292532 15.241759 -6.167648 -44.929905 4.074280 -106.425569 86.330074 -101.310222 -0.795170 -8.869134 -4.926204 0.423758 -0.784555 0.247140 -2.407723 -41.494440 3.647481 74.499468 82.667860 64.245918 -6.691323 -13.933819 8.188822 0.398455 1.271559 0.224825
